<svg version="1.2" xmlns="http://www.w3.org/2000/svg" viewBox="0 0 482 451" width="482" height="451">
	<title>ilustrasi</title>
	<style>
		.s0 { fill: #fafafa } 
		.s1 { fill: #e0e0e0 } 
		.s2 { fill: #ebebeb } 
		.s3 { fill: #263238 } 
		.s4 { fill: #000000 } 
		.s5 { fill: #37474f } 
		.s6 { fill: #455a64 } 
		.s7 { fill: #14a570 } 
		.s8 { opacity: .2;fill: #000000 } 
		.s9 { opacity: .3;fill: #000000 } 
		.s10 { fill: #f0f0f0 } 
		.s11 { fill: #ffffff } 
		.s12 { opacity: .15;fill: #000000 } 
		.s13 { fill: #f5f5f5 } 
		.s14 { opacity: .8;fill: #ffffff } 
		.s15 { opacity: .4;fill: #000000 } 
		.s16 { opacity: .5;fill: #000000 } 
		.s17 { opacity: .6;fill: #ffffff } 
		.s18 { opacity: .3;fill: #ffffff } 
		.s19 { opacity: .1;fill: #000000 } 
		.s20 { opacity: .88;fill: #ffffff } 
		.s21 { opacity: .75;fill: #ffffff } 
		.s22 { opacity: .55;fill: #000000 } 
		.s23 { fill: #ffa8a7 } 
		.s24 { fill: #f28f8f } 
	</style>
	<g id="freepik--Floor--inject-108">
		<path id="freepik--floor--inject-108" fill-rule="evenodd" class="s0" d="m241.1 450.2c-133.1 0-240.7-62.1-240.7-139 0-76.8 107.6-138.9 240.7-138.9 133 0 240.6 62.1 240.6 138.9 0 76.9-107.6 139-240.6 139z"/>
	</g>
	<g id="freepik--Shadows--inject-108">
		<path id="freepik--Shadow--inject-108" fill-rule="evenodd" class="s1" d="m372.9 400.6c-26.7 0-48.2-12.4-48.2-27.8 0-15.4 21.5-27.8 48.2-27.8 26.6 0 48.2 12.4 48.2 27.8 0 15.4-21.6 27.8-48.2 27.8z"/>
		<path id="freepik--shadow--inject-108" class="s1" d="m59.5 360.3l-39.6-22.8c-2.2-1.3-2.2-3.4 0-4.7l230-132.7q0.9-0.5 1.9-0.7 1.1-0.3 2.1-0.3 1.1 0 2.1 0.3 1 0.2 1.9 0.7l39.6 22.8c2.2 1.3 2.2 3.4 0 4.7l-230 132.7q-0.9 0.5-1.9 0.7-1 0.3-2.1 0.3-1.1 0-2.1-0.3-1-0.2-1.9-0.7z"/>
	</g>
	<g id="freepik--Clouds--inject-108">
		<path id="freepik--Cloud--inject-108" class="s2" d="m86 22.7l-8.9 5.2c0-0.4 0.1-0.8 0.1-1.2v-2.6c0-4.6-3.3-6.4-7.3-4.1q-0.6 0.4-1.2 0.8-0.6 0.5-1.1 1-0.6 0.5-1.1 1.1-0.5 0.6-0.9 1.2c-0.6-5.8-5.2-8-10.7-4.8-6 3.5-10.8 11.9-10.8 18.8v3.8q0 0.6 0 1.2 0.1 0.6 0.2 1.1 0.1 0.6 0.3 1.1 0.2 0.6 0.4 1.1l-7.4 4.3q-0.9 0.6-1.6 1.3-0.7 0.8-1.3 1.7-0.5 0.9-0.8 1.9-0.3 1-0.3 2.1c0 2.5 1.8 3.5 4 2.3l48.4-28q0.9-0.6 1.6-1.3 0.7-0.8 1.2-1.7 0.5-0.9 0.8-1.9 0.3-1 0.4-2c0-2.6-1.8-3.6-4-2.4z"/>
		<path id="freepik--cloud--inject-108" class="s2" d="m132.3 44.2l-6.7 3.9q0-0.2 0-0.3 0-0.1 0-0.2 0-0.1 0-0.2 0-0.1 0-0.2v-2c0-3.5-2.4-4.9-5.4-3.2q-0.5 0.3-1 0.7-0.4 0.3-0.8 0.7-0.4 0.4-0.8 0.8-0.4 0.5-0.7 0.9c-0.5-4.3-3.9-6-8.1-3.6-4.5 2.6-8.1 9-8.1 14.2v2.9q0 0.4 0 0.9 0 0.4 0.1 0.8 0.1 0.5 0.2 0.9 0.2 0.4 0.4 0.8l-5.6 3.2q-0.7 0.5-1.2 1-0.6 0.6-1 1.3-0.4 0.7-0.6 1.4-0.2 0.8-0.2 1.6c0 1.9 1.3 2.7 3 1.7l36.5-21.1q0.7-0.4 1.2-1 0.6-0.6 0.9-1.3 0.4-0.6 0.7-1.4 0.2-0.8 0.2-1.5c0-1.9-1.3-2.7-3-1.7z"/>
	</g>
	<g id="freepik--Device--inject-108">
		<g id="freepik--Monitor--inject-108">
			<path class="s3" d="m201.6 319.6l34-19.6c3.5-2 5.2-4.7 5.2-7.3 0-2.7 0-4.8 0-4.8l-35.2-19.8q-0.8-0.5-1.4-1.2-0.6-0.6-1-1.4-0.5-0.7-0.7-1.6-0.3-0.8-0.3-1.7v-41.9l-59.4 34.3v41.9q0.1 0.9 0.3 1.7 0.3 0.9 0.7 1.6 0.5 0.8 1.1 1.4 0.6 0.7 1.3 1.2l30 17.3c7 4 18.4 4 25.4-0.1z"/>
			<path class="s4" d="m157.1 303.9v4.7l-10.9-6.2q-0.8-0.5-1.4-1.2-0.6-0.6-1-1.4-0.4-0.7-0.7-1.6-0.2-0.8-0.3-1.7v-41.9l11.3-6.5c0.3 2.9 0.5 5.8 0.7 8.7l-7.9 4.6v32.7q0.1 0.9 0.3 1.8 0.3 0.8 0.7 1.6 0.4 0.7 1 1.4 0.7 0.6 1.4 1.1z"/>
			<path class="s5" d="m146.9 294.1q0.1 0.9 0.3 1.8 0.3 0.8 0.7 1.6 0.4 0.7 1 1.4 0.7 0.6 1.4 1.1l25.9 14.9c7 4.1 18.4 4.1 25.4 0l34-19.6c7-4 7-10.6 0-14.7l-25.9-14.9q-0.8-0.5-1.4-1.1-0.6-0.7-1-1.4-0.5-0.8-0.7-1.6-0.3-0.9-0.3-1.8v-32.7l-59.4 34.3z"/>
			<path class="s3" d="m216.5 269.7l-6.8-4q-0.8-0.5-1.4-1.1-0.6-0.7-1-1.4-0.5-0.8-0.7-1.6-0.3-0.9-0.3-1.8v-32.7l-59.4 34.3v32.8q0.1 0.8 0.3 1.7 0.3 0.8 0.7 1.6 0.4 0.7 1 1.4 0.7 0.6 1.4 1.1l6.8 3.9z"/>
			<path class="s6" d="m240.8 288v4.7c0 2.7-1.8 5.3-5.3 7.4l-34 19.6q-1.3 0.7-2.8 1.3-1.5 0.6-3 0.9-1.5 0.4-3.1 0.6-1.6 0.2-3.2 0.2v-4.7q1.6 0 3.2-0.2 1.6-0.2 3.1-0.6 1.5-0.3 3-0.9 1.5-0.6 2.8-1.3l34-19.7c3.5-2 5.3-4.7 5.3-7.3z"/>
			<path class="s6" d="m51.6 334.8q1 0.5 2 0.7 1 0.3 2.1 0.2 1.1 0 2.1-0.2 1-0.3 2-0.8l229.6-132.6q0.9-0.6 1.6-1.3 0.8-0.8 1.3-1.8 0.6-1 0.9-2 0.3-1.1 0.4-2.2v-186.3q-0.1-1-0.4-2.1-0.2-1-0.8-1.9-0.5-1-1.2-1.8-0.7-0.8-1.6-1.3-1-0.5-2-0.7-1.1-0.3-2.1-0.3-1.1 0.1-2.1 0.3-1.1 0.3-2 0.8l-229.5 132.5q-1 0.6-1.7 1.4-0.8 0.8-1.3 1.8-0.6 0.9-0.9 2-0.3 1-0.4 2.1v186.4q0.1 1 0.4 2.1 0.2 1 0.8 1.9 0.5 1 1.2 1.8 0.7 0.7 1.6 1.3z"/>
			<path class="s7" d="m59.8 334.7l229.6-132.5q0.9-0.7 1.6-1.5 0.8-0.8 1.3-1.7 0.6-1 0.9-2 0.3-1.1 0.4-2.2v-186.3c0-2.7-1.9-3.8-4.2-2.4l-229.6 132.5q-0.9 0.6-1.7 1.4-0.7 0.8-1.3 1.8-0.5 0.9-0.9 2-0.3 1-0.3 2.1v186.3c0 2.7 1.9 3.8 4.2 2.5z"/>
			<path class="s5" d="m59.8 334.7l229.6-132.5q0.9-0.7 1.6-1.5 0.8-0.8 1.3-1.7 0.6-1 0.9-2 0.3-1.1 0.4-2.2v-186.3c0-2.7-1.9-3.8-4.2-2.4l-229.6 132.5q-0.9 0.6-1.7 1.4-0.7 0.8-1.3 1.8-0.5 0.9-0.9 2-0.3 1-0.3 2.1v186.3c0 2.7 1.9 3.8 4.2 2.5z"/>
			<path class="s3" d="m59.2 339.5q-0.9 0.4-1.9 0.6-1 0.2-1.9 0.2-1-0.1-2-0.3-0.9-0.2-1.8-0.7-0.9-0.5-1.6-1.3-0.7-0.8-1.3-1.8-0.5-0.9-0.8-1.9-0.3-1.1-0.3-2.1v-16.9l7.9 4.5v17c0.1 2.4 1.6 3.5 3.7 2.7z"/>
			<path class="s5" d="m55.6 319.9v16.9c0 2.7 1.9 3.7 4.2 2.4l229.6-132.5q0.9-0.6 1.6-1.4 0.8-0.8 1.3-1.8 0.6-1 0.9-2 0.3-1.1 0.4-2.2v-16.9z"/>
			<path class="s8" d="m55.6 319.8v16.9c0 2.7 1.9 3.8 4.2 2.5l229.6-132.5q0.9-0.6 1.6-1.4 0.8-0.8 1.3-1.8 0.6-1 0.9-2 0.3-1.1 0.4-2.2v-16.9z"/>
			<path class="s7" d="m63.5 298.6v-150q0-0.7 0.2-1.3 0.2-0.7 0.5-1.2 0.4-0.6 0.8-1.1 0.5-0.5 1-0.8l217.1-125.4c1.4-0.8 2.5-0.1 2.5 1.5v150.1q0 0.6-0.2 1.3-0.2 0.6-0.5 1.2-0.3 0.6-0.8 1-0.4 0.5-1 0.9l-217.1 125.3c-1.4 0.8-2.5 0.1-2.5-1.5z"/>
			<path class="s9" d="m63.5 298.6v-150q0-0.7 0.2-1.3 0.2-0.7 0.5-1.2 0.4-0.6 0.8-1.1 0.5-0.5 1-0.8l217.1-125.4c1.4-0.8 2.5-0.1 2.5 1.5v150.1q0 0.6-0.2 1.3-0.2 0.6-0.5 1.2-0.3 0.6-0.8 1-0.4 0.5-1 0.9l-217.1 125.3c-1.4 0.8-2.5 0.1-2.5-1.5z"/>
			<path class="s6" d="m174.6 256.5q-0.9 0.6-1.6 1.3-0.7 0.8-1.3 1.7-0.5 0.9-0.8 1.8-0.3 1-0.3 2.1c0 2.5 1.8 3.5 4 2.3q0.8-0.6 1.6-1.4 0.7-0.7 1.2-1.6 0.5-0.9 0.8-1.9 0.3-1 0.4-2c-0.1-2.5-1.8-3.6-4-2.3z"/>
			<path class="s3" d="m56.8 141.8q-0.3 0.4-0.5 0.9-0.2 0.5-0.4 1.1-0.1 0.5-0.2 1-0.1 0.6-0.1 1.1v174l-8-4.6v-173.9q0.1-0.6 0.1-1.1 0.1-0.6 0.3-1.1 0.1-0.5 0.4-1 0.2-0.5 0.5-1z"/>
		</g>
	</g>
	<g id="freepik--Spreadsheets--inject-108">
		<g id="freepik--Window--inject-108">
			<g id="freepik--window--inject-108">
				<path class="s7" d="m325.6 7.6q-0.3-0.1-0.6-0.1-0.3-0.1-0.6-0.1-0.2 0-0.5 0.1-0.3 0.1-0.5 0.3l-228.8 132.1q-0.7 0.5-1.2 1-0.5 0.6-0.9 1.2-0.4 0.7-0.6 1.5-0.3 0.7-0.3 1.5v154.2q0 0.4 0 0.8 0.1 0.3 0.3 0.7 0.1 0.3 0.4 0.6 0.2 0.3 0.5 0.5c0.5 0.2 3 1.7 3.8 2.1q0.2 0.1 0.5 0.2 0.2 0 0.4 0 0.2 0 0.4-0.1 0.3 0 0.4-0.2l228.9-132.1q0.6-0.5 1.2-1 0.5-0.6 0.9-1.2 0.4-0.7 0.6-1.5 0.2-0.7 0.3-1.5v-155q0-0.3 0-0.5-0.1-0.3-0.2-0.6-0.1-0.3-0.3-0.5-0.2-0.2-0.5-0.4c-0.5-0.2-3.1-1.6-3.7-2z"/>
				<path class="s0" d="m98.4 142.1l228.8-132.1c1.6-0.9 3-0.2 3 1.7v155q-0.1 0.8-0.3 1.5-0.2 0.8-0.6 1.4-0.4 0.7-0.9 1.3-0.6 0.5-1.2 0.9l-228.8 132.1c-1.7 1-3-0.5-3-2.4v-154.3q0-0.8 0.3-1.5 0.2-0.7 0.6-1.4 0.4-0.7 0.9-1.2 0.5-0.6 1.2-1z"/>
				<path class="s1" d="m328.5 9.5q-0.2 0.1-0.3 0.1-0.2 0-0.4 0.1-0.2 0-0.3 0.1-0.2 0.1-0.3 0.2l-228.8 132.1q-0.7 0.4-1.2 1-0.5 0.5-0.9 1.2-0.4 0.7-0.6 1.4-0.3 0.7-0.3 1.5v154.3c0 1.5 0.8 2.7 2 2.7q0.1 0 0.3 0 0.1 0 0.2 0 0.1-0.1 0.3-0.1 0.1-0.1 0.2-0.2l228.8-132.1q0.6-0.5 1.2-1 0.5-0.6 0.9-1.2 0.4-0.7 0.6-1.5 0.2-0.7 0.3-1.5v-155c0-1.3-0.7-2.1-1.7-2.1zm0 1c0.6 0 0.7 0.7 0.7 1.1v155q-0.1 0.7-0.3 1.3-0.1 0.6-0.5 1.2-0.3 0.5-0.7 1-0.5 0.4-1 0.8l-228.8 132.1q0 0.1-0.1 0.1 0 0-0.1 0-0.1 0.1-0.1 0.1-0.1 0-0.2 0c-0.5 0-1-0.8-1-1.8v-154.2q0.1-0.7 0.3-1.3 0.2-0.6 0.5-1.1 0.3-0.6 0.7-1.1 0.5-0.4 1-0.8l228.8-132.1q0.1-0.1 0.2-0.1 0.1-0.1 0.2-0.1 0.1 0 0.2-0.1 0.1 0 0.2 0z"/>
				<path class="s10" d="m92.9 301.9c0.3 0.2 2.6 1.5 3.6 2.1q-0.3-0.3-0.5-0.6-0.2-0.2-0.3-0.6-0.2-0.3-0.2-0.6-0.1-0.4-0.1-0.7v-144.6l-3.8-2.2v144.6q0 0.4 0.1 0.8 0.1 0.3 0.2 0.7 0.2 0.3 0.4 0.6 0.3 0.3 0.6 0.5z"/>
				<path class="s7" d="m330.1 11.6c0-1.8-1.3-2.6-3-1.6l-228.7 132.1q-0.7 0.4-1.2 1-0.5 0.5-0.9 1.2-0.4 0.7-0.6 1.4-0.3 0.7-0.3 1.5v9.7l234.7-135.5z"/>
				<g style="opacity: .4">
					<path class="s11" d="m327.2 10l-228.8 132.1q-0.3 0.2-0.6 0.4-0.3 0.3-0.6 0.6-0.3 0.2-0.5 0.5-0.2 0.4-0.4 0.7l-3.8-2.2q0.2-0.3 0.4-0.6 0.3-0.3 0.5-0.6 0.3-0.3 0.6-0.5 0.3-0.3 0.6-0.5l228.8-132.1q0.2-0.2 0.5-0.3 0.3-0.1 0.5-0.1 0.3 0 0.6 0.1 0.3 0 0.5 0.1c0.6 0.4 3 1.8 3.7 2.1q-0.3-0.1-0.6-0.1-0.2 0-0.5 0-0.2 0-0.5 0.1-0.2 0.1-0.4 0.3z"/>
				</g>
				<path class="s12" d="m91.6 154.7v-9.6q0-0.4 0.1-0.8 0.1-0.4 0.2-0.8 0.1-0.4 0.3-0.7 0.1-0.4 0.3-0.7l3.8 2.1q-0.2 0.4-0.4 0.7-0.1 0.4-0.2 0.8-0.1 0.3-0.2 0.7-0.1 0.4-0.1 0.8v9.7z"/>
				<path fill-rule="evenodd" class="s2" d="m95.4 156.9v17.5l234.7-135.6v-17.4l-234.7 135.5z"/>
				<path fill-rule="evenodd" class="s1" d="m105.2 155.6l15.2-8.7v8.7l-15.2 8.8v-8.8z"/>
				<path fill-rule="evenodd" class="s1" d="m124.1 144.7v3.4l7.6-4.3v-3.5l-7.6 4.4z"/>
				<path fill-rule="evenodd" class="s1" d="m124.1 150v3.4l7.6-4.3v-3.5l-7.6 4.4z"/>
				<path fill-rule="evenodd" class="s1" d="m135.5 138.1v3.5l7.6-4.4v-3.4l-7.6 4.3z"/>
				<path fill-rule="evenodd" class="s1" d="m135.5 143.4v3.5l7.6-4.4v-3.4l-7.6 4.3z"/>
				<path fill-rule="evenodd" class="s1" d="m146.8 131.6v3.4l7.6-4.4v-3.4l-7.6 4.4z"/>
				<path fill-rule="evenodd" class="s1" d="m146.8 136.9v3.4l7.6-4.4v-3.4l-7.6 4.4z"/>
				<path fill-rule="evenodd" class="s1" d="m180.9 111.9v3.4l7.6-4.3v-3.5l-7.6 4.4z"/>
				<path fill-rule="evenodd" class="s1" d="m180.9 117.2v3.5l7.6-4.4v-3.5l-7.6 4.4z"/>
				<path fill-rule="evenodd" class="s1" d="m192.3 105.3v3.5l7.5-4.4v-3.4l-7.5 4.3z"/>
				<path fill-rule="evenodd" class="s1" d="m192.3 110.7v3.4l7.5-4.4v-3.4l-7.5 4.4z"/>
				<path fill-rule="evenodd" class="s1" d="m203.6 98.8v3.4l7.6-4.3v-3.5l-7.6 4.4z"/>
				<path fill-rule="evenodd" class="s1" d="m203.6 104.1v3.4l7.6-4.3v-3.5l-7.6 4.4z"/>
				<path fill-rule="evenodd" class="s1" d="m158.2 125l18.9-10.9v8.7l-18.9 11v-8.8z"/>
				<path fill-rule="evenodd" class="s1" d="m215 92.2l15.2-8.7v8.7l-15.2 8.8v-8.8z"/>
				<path fill-rule="evenodd" class="s1" d="m233.9 81.3v3.4l7.6-4.3v-3.5l-7.6 4.4z"/>
				<path fill-rule="evenodd" class="s1" d="m233.9 86.6v3.5l7.6-4.4v-3.5l-7.6 4.4z"/>
				<path fill-rule="evenodd" class="s1" d="m245.3 74.8v3.4l7.5-4.4v-3.4l-7.5 4.4z"/>
				<path fill-rule="evenodd" class="s1" d="m245.3 80.1v3.4l7.5-4.4v-3.4l-7.5 4.4z"/>
				<path fill-rule="evenodd" class="s1" d="m256.6 68.2v3.4l7.6-4.4v-3.4l-7.6 4.4z"/>
				<path fill-rule="evenodd" class="s1" d="m256.6 73.5v3.4l7.6-4.3v-3.5l-7.6 4.4z"/>
				<path fill-rule="evenodd" class="s1" d="m290.7 48.5v3.5l7.6-4.4v-3.5l-7.6 4.4z"/>
				<path fill-rule="evenodd" class="s1" d="m290.7 53.8v3.5l7.6-4.4v-3.4l-7.6 4.3z"/>
				<path fill-rule="evenodd" class="s1" d="m302.1 42v3.4l7.5-4.4v-3.4l-7.5 4.4z"/>
				<path fill-rule="evenodd" class="s1" d="m302.1 47.3v3.4l7.5-4.4v-3.4l-7.5 4.4z"/>
				<path fill-rule="evenodd" class="s1" d="m313.4 35.4v3.4l7.6-4.3v-3.5l-7.6 4.4z"/>
				<path fill-rule="evenodd" class="s1" d="m313.4 40.7v3.5l7.6-4.4v-3.5l-7.6 4.4z"/>
				<path fill-rule="evenodd" class="s1" d="m268 61.6l18.9-10.9v8.8l-18.9 10.9v-8.8z"/>
				<path fill-rule="evenodd" class="s1" d="m95.4 156.9l-3.8-2.2v17.5l3.8 2.2v-17.5z"/>
				<path class="s13" d="m269.6 49.5v0.6c0 1 0.7 1.4 1.6 0.9l46-26.5q0.3-0.2 0.6-0.5 0.3-0.4 0.5-0.7 0.2-0.4 0.3-0.8 0.2-0.4 0.2-0.8v-0.6c0-1-0.7-1.5-1.6-1l-46 26.6q-0.4 0.2-0.7 0.5-0.2 0.3-0.5 0.7-0.2 0.3-0.3 0.7-0.1 0.4-0.1 0.9z"/>
				<path class="s6" d="m318.8 21.7v-0.7c0-1-0.7-1.4-1.6-0.9l-6 3.5v4.3l6-3.4q0.3-0.2 0.6-0.5 0.3-0.4 0.5-0.7 0.2-0.4 0.3-0.8 0.2-0.4 0.2-0.8z"/>
			</g>
			<g id="freepik--spreadsheets--inject-108">
				<path fill-rule="evenodd" class="s10" d="m99.2 176.5l227.2-131.1v8.7l-208.3 120.3v113.6l-18.9 10.9v-122.4z"/>
				<path fill-rule="evenodd" class="s7" d="m118.1 174.4l19-11v8.8l-19 10.9v-8.7z"/>
				<path fill-rule="evenodd" class="s7" d="m118.1 244.3l19-10.9v8.7l-19 10.9v-8.7z"/>
				<path fill-rule="evenodd" class="s7" d="m118.1 253l19-10.9v8.7l-19 11v-8.8z"/>
				<path fill-rule="evenodd" class="s14" d="m118.1 253l19-10.9v8.7l-19 11v-8.8z"/>
				<path fill-rule="evenodd" class="s7" d="m231.7 178.7l18.9-10.9v8.7l-18.9 11v-8.8z"/>
				<path fill-rule="evenodd" class="s9" d="m231.7 178.7l18.9-10.9v8.7l-18.9 11v-8.8z"/>
				<path fill-rule="evenodd" class="s7" d="m231.7 187.5l18.9-10.9v8.7l-18.9 10.9v-8.7z"/>
				<path fill-rule="evenodd" class="s15" d="m231.7 187.5l18.9-10.9v8.7l-18.9 10.9v-8.7z"/>
				<path fill-rule="evenodd" class="s7" d="m231.7 196.2l18.9-10.9v8.7l-18.9 11v-8.8z"/>
				<path fill-rule="evenodd" class="s16" d="m231.7 196.2l18.9-10.9v8.7l-18.9 11v-8.8z"/>
				<path fill-rule="evenodd" class="s7" d="m231.7 205l18.9-11v8.8l-18.9 10.9v-8.7z"/>
				<path fill-rule="evenodd" class="s9" d="m231.7 205l18.9-11v8.8l-18.9 10.9v-8.7z"/>
				<path fill-rule="evenodd" class="s7" d="m212.8 119.7l18.9-10.9v43.7l-18.9 10.9v-43.7z"/>
				<path fill-rule="evenodd" class="s7" d="m212.8 172.2l18.9-10.9v61.1l-18.9 11v-61.2z"/>
				<path fill-rule="evenodd" class="s7" d="m137.1 215.9l18.9-10.9v8.7l-18.9 10.9v-8.7z"/>
				<path fill-rule="evenodd" class="s9" d="m137.1 215.9l18.9-10.9v8.7l-18.9 10.9v-8.7z"/>
				<path fill-rule="evenodd" class="s7" d="m174.9 150.3l18.9-10.9v8.7l-18.9 11v-8.8z"/>
				<path fill-rule="evenodd" class="s17" d="m174.9 150.3l18.9-10.9v8.7l-18.9 11v-8.8z"/>
				<path fill-rule="evenodd" class="s7" d="m269.6 148.1l18.9-10.9v8.7l-18.9 11v-8.8z"/>
				<path fill-rule="evenodd" class="s14" d="m269.6 148.1l18.9-10.9v8.7l-18.9 11v-8.8z"/>
				<path fill-rule="evenodd" class="s7" d="m269.6 165.6l18.9-10.9v8.7l-18.9 11v-8.8z"/>
				<path class="s1" d="m99 176.2l-0.2 0.1v123.5l227.8-131.6 0.2-0.1v-123.5zm226.9-17.3l-18 10.4v-7.7l18-10.4zm-226.2 26.8l18-10.4v7.6l-18 10.4zm112.6-12.5v7.6l-18 10.4v-7.6zm-18 9.3v-7.7l18-10.4v7.7zm19-9.9l18-10.4v7.7l-18 10.4zm0-1.1v-7.7l18-10.4v7.7zm0-8.7v-7.6l18-10.4v7.6zm0-8.7v-7.7l18-10.4v7.7zm-1 0.5l-18 10.4v-7.6l18-10.4zm0 1v7.7l-18 10.4v-7.7zm-18.9 18.6l-18 10.4v-7.6l18-10.4zm0 1v7.7l-18 10.4v-7.7zm0 8.8v7.6l-18 10.4v-7.6zm0 8.7v7.7l-18 10.4v-7.7zm0.9-0.6l18-10.3v7.6l-18 10.4zm18-1.6v7.7l-18 10.3v-7.6zm1-0.6l18-10.4v7.7l-18 10.4zm0-1.1v-7.6l18-10.4v7.6zm18.9-18.6l18-10.4v7.7l-18 10.4zm0-1.1v-7.6l18-10.4v7.6zm0-8.7v-7.7l18-10.4v7.7zm0-8.7v-7.8l18-10.3v7.6zm0-8.7v-7.7l18-10.4v7.7zm0-8.8v-7.6l18-10.4v7.6zm-0.9 0.6l-18 10.4v-7.7l18-10.4zm-19 11l-18 10.3v-7.6l18-10.4zm-18.9 10.9l-18 10.4v-7.7l18-10.4zm0 1.1v7.7l-18 10.4v-7.7zm-18.9 18.6l-18 10.4v-7.7l18-10.4zm0 1.1v7.6l-18 10.4v-7.6zm0 8.7v7.7l-18 10.4v-7.7zm0 8.7v7.7l-18 10.4v-7.7zm0 8.8v7.6l-18 10.4v-7.6zm0 8.7v7.7l-18 10.4v-7.7zm0.9-0.5l18-10.4v7.6l-18 10.4zm18-1.6v7.7l-18 10.3v-7.6zm0.9-0.6l18-10.4v7.7l-18 10.4zm19-10.9l18-10.4v7.7l-18 10.4zm18.9-10.9l18-10.4v7.6l-18 10.4zm0-1.1v-7.6l18-10.4v7.6zm18.9-18.6l18-10.4v7.7l-18 10.4zm0-1.1v-7.6l18-10.4v7.6zm0-8.7v-7.7l18-10.4v7.7zm0-8.7v-7.7l18-10.4v7.7zm0-8.8v-7.6l18-10.4v7.6zm0-8.7v-7.7l18-10.4v7.7zm0-8.7v-7.7l18-10.4v7.7zm0-8.8v-7.6l18-10.4v7.6zm-0.9 0.6l-18 10.4v-7.7l18-10.4zm-18.9 10.9l-18 10.4v-7.6l18-10.4zm-19 10.9l-18 10.4v-7.7l18-10.4zm-18.9 10.9l-18 10.4v-7.6l18-10.4zm-18.9 10.9l-18 10.4v-7.7l18-10.4zm0 1.1v7.7l-18 10.4v-7.7zm-19 18.6l-18 10.4v-7.7l18-10.4zm0 1.1v7.7l-18 10.4v-7.7zm0 8.7v7.8l-18 10.3v-7.6zm0 8.7v7.7l-18 10.4v-7.7zm0 8.8v7.6l-18 10.4v-7.6zm0 8.7v7.7l-18 10.4v-7.7zm0 8.7v7.7l-18 10.4v-7.7zm0 8.8v7.7l-18 10.3v-7.6zm1-0.6l18-10.4v7.7l-18 10.4zm18-1.6v7.6l-18 10.4v-7.6zm0.9-0.6l18-10.4v7.7l-18 10.4zm18.9-10.9l18-10.4v7.6l-18 10.4zm19-10.9l18-10.4v7.7l-18 10.4zm18.9-11l18-10.4v7.7l-18 10.4zm18.9-10.9l18-10.4v7.7l-18 10.3zm0-1v-7.7l18-10.4v7.7zm18.9-18.6l18-10.4v7.7l-18 10.3zm0-1v-7.7l18-10.4v7.7zm0-8.8v-7.6l18-10.5v7.7zm0-8.7v-7.7l18-10.4v7.7zm0-8.7v-7.7l18-10.4v7.7zm0-8.8v-7.6l18-10.4v7.7zm0-8.8v-7.7l18-10.3v7.6zm0-8.7v-7.7l18-10.4v7.7zm0-8.7v-7.6l18-10.4v7.6zm0-8.7v-7.7l18-10.4v7.7zm-0.9 0.5l-18 10.4v-7.6l18-10.4zm-18.9 10.9l-18 10.4v-7.7l18-10.4zm-19 11l-18 10.4v-7.7l18-10.4zm-18.9 10.9l-18 10.4v-7.6l18-10.4zm-18.9 10.9l-18 10.4v-7.7l18-10.4zm-18.9 10.9l-18 10.4v-7.6l18-10.4zm-18.9 10.9l-18 10.4v-7.6l18-10.4zm0 1v7.7l-18 10.4v-7.7zm-19 18.6l-18 10.4v-7.6l18-10.4zm0 1v7.7l-18 10.4v-7.7zm0 8.8v7.6l-18 10.4v-7.6zm0 8.7v7.7l-18 10.4v-7.7zm0 8.7v7.7l-18 10.4v-7.7zm0 8.7v7.7l-18 10.4v-7.7zm0 8.7v7.7l-18 10.4v-7.7zm0 8.8v7.6l-18 10.4v-7.6zm0 8.7v7.7l-18 10.3v-7.6zm0 8.7v7.7l-18 10.4v-7.7zm1-0.5l18-10.4v7.6l-18 10.4zm18-1.6v7.7l-18 10.3v-7.6zm0.9-0.6l18-10.4v7.7l-18 10.4zm18.9-11l18-10.4v7.7l-18 10.4zm18.9-11l18-10.4v7.7l-18 10.4zm19-10.9l18-10.4v7.7l-18 10.3zm18.9-10.9l18-10.4v7.7l-18 10.4zm18.9-10.9l18-10.4v7.6l-18 10.4zm18.9-10.9l18-10.4v7.7l-18 10.4zm0-1.1v-7.7l18-10.3v7.6zm19-18.6l18-10.4v7.7l-18 10.4zm0-1.1v-7.6l18-10.4v7.6zm0-8.7v-7.7l18-10.4v7.7zm0-8.7v-7.7l18-10.4v7.7zm0-8.8v-7.6l18-10.4v7.6zm0-8.7v-7.7l18-10.4v7.7zm0-8.8v-7.6l18-10.4v7.6zm0-8.7v-7.7l18-10.4v7.7zm0-8.7v-7.7l18-10.4v7.6zm0-8.7v-7.7l18-10.4v7.7zm0-8.8v-7.6l18-10.4v7.6zm0-8.7v-7.7l18-10.4v7.7zm-0.9 0.6l-18 10.3v-7.6l18-10.4zm-18.9 10.9l-18 10.4v-7.7l18-10.4zm-19 11l-18 10.4v-7.7l18-10.4zm-18.9 10.9l-18 10.4v-7.6l18-10.4zm-18.9 10.9l-18 10.4v-7.7l18-10.4zm-19 11l-18 10.4v-7.7l18-10.4zm-18.9 10.9l-18 10.4v-7.7l18-10.4zm-18.9 11l-18 10.4v-7.7l18-10.4zm-19 11l-18 10.4v-7.7l18-10.4zm0 1.1v7.6l-18 10.4v-7.6zm-36.9 30l18-10.4v7.7l-18 10.4zm0 8.7l18-10.4v7.7l-18 10.4zm0 8.8l18-10.4v7.6l-18 10.4zm0 8.8l18-10.4v7.6l-18 10.4zm0 8.8l18-10.4v7.7l-18 10.4zm0 8.7l18-10.4v7.7l-18 10.4zm0 8.7l18-10.4v7.7l-18 10.4zm0 8.7l18-10.4v7.7l-18 10.4zm0 8.7l18-10.3v7.6l-18 10.4zm0 8.8l18-10.4v7.6l-18 10.4zm0 8.8l18-10.4v7.6l-18 10.4zm18.9-10.9l18-10.4v7.7l-18 10.3zm18-1.6v7.6l-18 10.4v-7.6zm1-0.6l18-10.3v7.6l-18 10.4zm18.9-10.9l18-10.4v7.7l-18 10.3zm18.9-10.9l18-10.4v7.6l-18 10.4zm18.9-10.9l18-10.4v7.6l-18 10.4zm19-10.9l18-10.4v7.6l-18 10.4zm18.9-10.9l18-10.4v7.7l-18 10.3zm18.9-10.9l18-10.4v7.7l-18 10.4zm18.9-11l18-10.4v7.7l-18 10.4zm19-11l18-10.4v7.7l-18 10.4zm0-1.1v-7.7l18-10.4v7.7zm36.9-30.1l-18 10.4v-7.6l18-10.4zm0-8.8l-18 10.4v-7.7l18-10.3zm0-8.8l-18 10.4v-7.6l18-10.4zm0-8.8l-18 10.4v-7.7l18-10.3zm0-8.8l-18 10.4v-7.7l18-10.4zm0-8.7l-18 10.4v-7.7l18-10.4zm0-8.7l-18 10.4v-7.7l18-10.4zm0-8.7l-18 10.4v-7.7l18-10.4zm0-8.7l-18 10.3v-7.6l18-10.4zm0-8.8l-18 10.4v-7.6l18-10.4zm0-8.8l-18 10.4v-7.7l18-10.3zm0-8.8l-18 10.4v-7.7l18-10.4zm-208.3 112.6v7.7l-18 10.3v-7.6zm-18 124.1l18-10.4v7.6l-18 10.4zm208.3-112.6v-7.6l18-10.4v7.6z"/>
				<path fill-rule="evenodd" class="s0" d="m250.6 97.8l75.8-43.6v43.7l-75.8 43.7v-43.8z"/>
				<path class="s1" d="m250.1 142.4v-44.8l0.3-0.2 76.5-44.1v44.9zm1-44.3v42.5l74.7-43.1v-42.6z"/>
				<path class="s6" d="m254.4 131h-0.1q-0.1 0-0.1-0.1-0.1 0-0.1-0.1 0-0.1 0-0.1 0-0.1 0-0.2l10.2-28q0.1-0.1 0.1-0.1 0.1-0.1 0.1-0.1 0.1 0 0.2 0 0.1 0 0.2 0l11 6.7 11.2-11.4q0.1 0 0.1 0 0.1-0.1 0.1-0.1 0.1 0 0.2 0.1 0 0 0.1 0l11 7.2 11.2-27.5q0 0 0-0.1 0.1-0.1 0.2-0.1 0 0 0.1 0 0.1 0 0.2 0l11.3 5.9q0.2 0 0.2 0.2 0 0.1 0 0.3-0.1 0.1-0.2 0.1-0.2 0.1-0.3 0l-11-5.6-11.2 27.6q0 0-0.1 0 0 0.1 0 0.1 0 0-0.1 0 0 0.1-0.1 0.1 0 0 0 0-0.1 0-0.1 0-0.1 0-0.1 0 0 0-0.1 0l-11.1-7.3-11.1 11.3q-0.1 0.1-0.1 0.1-0.1 0-0.1 0-0.1 0-0.2 0 0 0-0.1 0l-10.9-6.5-10.1 27.5q0 0-0.1 0 0 0.1-0.1 0.1 0 0-0.1 0 0 0-0.1 0z"/>
				<path class="s7" d="m264.7 101.4q-0.3 0.1-0.5 0.4-0.2 0.2-0.3 0.4-0.2 0.3-0.3 0.6-0.1 0.3-0.1 0.6c0 0.7 0.5 1 1.2 0.6q0.2-0.1 0.4-0.3 0.2-0.3 0.4-0.5 0.1-0.3 0.2-0.6 0.1-0.3 0.1-0.6c0-0.7-0.5-1-1.1-0.6z"/>
				<path class="s7" d="m276 108.1q-0.3 0.2-0.5 0.4-0.2 0.2-0.3 0.5-0.2 0.3-0.2 0.6-0.1 0.2-0.1 0.5c0 0.8 0.5 1 1.1 0.7q0.3-0.2 0.5-0.4 0.2-0.2 0.3-0.5 0.2-0.2 0.2-0.5 0.1-0.3 0.1-0.6c0.1-0.7-0.5-1-1.1-0.7z"/>
				<path class="s7" d="m287.4 96.5q-0.3 0.2-0.5 0.4-0.2 0.3-0.3 0.5-0.2 0.3-0.3 0.6-0.1 0.3-0.1 0.6c0 0.7 0.5 1 1.2 0.6q0.2-0.2 0.4-0.4 0.2-0.2 0.4-0.5 0.1-0.2 0.2-0.5 0.1-0.3 0.1-0.6c0-0.7-0.5-1-1.1-0.7z"/>
				<path class="s7" d="m298.7 104q-0.2 0.2-0.4 0.4-0.2 0.2-0.4 0.5-0.1 0.2-0.2 0.5-0.1 0.3-0.1 0.6c0 0.7 0.5 1 1.1 0.7q0.3-0.2 0.5-0.4 0.2-0.2 0.3-0.5 0.2-0.3 0.3-0.6 0-0.2 0.1-0.5c0-0.7-0.5-1-1.2-0.7z"/>
				<path class="s7" d="m310.1 76.1q-0.3 0.2-0.5 0.4-0.2 0.2-0.3 0.5-0.2 0.2-0.3 0.5-0.1 0.3-0.1 0.6c0 0.7 0.5 1 1.2 0.7q0.2-0.2 0.4-0.4 0.2-0.3 0.4-0.5 0.1-0.3 0.2-0.6 0.1-0.3 0.1-0.5c0-0.8-0.5-1.1-1.1-0.7z"/>
				<path class="s7" d="m321.4 81.9q-0.2 0.2-0.4 0.4-0.2 0.2-0.4 0.5-0.1 0.2-0.2 0.5-0.1 0.3-0.1 0.6c0 0.7 0.5 1 1.1 0.7q0.3-0.2 0.5-0.4 0.2-0.2 0.3-0.5 0.2-0.3 0.3-0.5 0-0.3 0.1-0.6c0-0.8-0.5-1.1-1.2-0.7z"/>
			</g>
		</g>
	</g>
	<g id="freepik--Charts--inject-108">
		<g id="freepik--charts--inject-108">
			<path fill-rule="evenodd" class="s6" d="m357.9 215.2l-20.2 11.6 20.2 11.7 20.1-11.7-20.1-11.6z"/>
			<path fill-rule="evenodd" class="s5" d="m378 226.8v46.3l-20.1 11.6v-46.2l20.1-11.7z"/>
			<path fill-rule="evenodd" class="s3" d="m357.9 238.5v46.2l-20.2-11.6v-46.3l20.2 11.7z"/>
			<path fill-rule="evenodd" class="s7" d="m331.4 250.6l-20.2 11.6 20.2 11.6 20.1-11.6-20.1-11.6z"/>
			<path fill-rule="evenodd" class="s18" d="m331.4 250.6l-20.2 11.6 20.2 11.6 20.1-11.6-20.1-11.6z"/>
			<path fill-rule="evenodd" class="s7" d="m351.5 262.1v26.3l-20.1 11.6v-26.2l20.1-11.7z"/>
			<path fill-rule="evenodd" class="s7" d="m331.4 273.8v26.2l-20.2-11.6v-26.2l20.2 11.6z"/>
			<path fill-rule="evenodd" class="s19" d="m331.4 273.8v26.2l-20.2-11.6v-26.2l20.2 11.6z"/>
			<path fill-rule="evenodd" class="s7" d="m304.9 255l-20.2 11.6 20.2 11.6 20.1-11.6-20.1-11.6z"/>
			<path fill-rule="evenodd" class="s20" d="m304.9 255l-20.2 11.6 20.2 11.6 20.1-11.6-20.1-11.6z"/>
			<path fill-rule="evenodd" class="s7" d="m325 266.6v37l-20.1 11.7v-37.1l20.1-11.6z"/>
			<path fill-rule="evenodd" class="s21" d="m325 266.6v37l-20.1 11.7v-37.1l20.1-11.6z"/>
			<path fill-rule="evenodd" class="s7" d="m304.9 278.2v37.1l-20.2-11.7v-37l20.2 11.6z"/>
			<path fill-rule="evenodd" class="s17" d="m304.9 278.2v37.1l-20.2-11.7v-37l20.2 11.6z"/>
			<path fill-rule="evenodd" class="s7" d="m278.4 294.3l-20.2 11.6 20.2 11.6 20.1-11.6-20.1-11.7z"/>
			<path fill-rule="evenodd" class="s9" d="m278.4 294.3l-20.2 11.6 20.2 11.6 20.1-11.6-20.1-11.7z"/>
			<path fill-rule="evenodd" class="s7" d="m298.5 305.9v13.1l-20.1 11.6v-13.1l20.1-11.6z"/>
			<path fill-rule="evenodd" class="s15" d="m298.5 305.9v13.1l-20.1 11.6v-13.1l20.1-11.6z"/>
			<path fill-rule="evenodd" class="s7" d="m278.4 317.5v13.1l-20.2-11.7v-13l20.2 11.6z"/>
			<path fill-rule="evenodd" class="s22" d="m278.4 317.5v13.1l-20.2-11.7v-13l20.2 11.6z"/>
		</g>
		<g id="freepik--charts--inject-108">
			<path class="s3" d="m168.7 375.6v7.6l-7.6-20.4v-7.7z"/>
			<path fill-rule="evenodd" class="s5" d="m168.7 375.6v7.6l31-10.8v-7.6l-31 10.8z"/>
			<path class="s6" d="m161.1 355.1l7.6 20.5 31-10.8c-8.5-7.4-23.3-11.1-38.6-9.7z"/>
			<path class="s7" d="m128.7 377q0 0 0 0.1 0 0 0 0 0 0 0 0.1 0 0 0 0z"/>
			<path class="s7" d="m165.6 385.2l-4.6 21.7c-18.8-1.8-32.4-11.3-32.3-22.2v-7.4c0 10.8 13.6 20.2 32.3 22l3.2-14.9z"/>
			<path class="s15" d="m165.6 385.2l-4.6 21.7c-18.8-1.8-32.4-11.3-32.3-22.2v-7.4c0 10.8 13.6 20.2 32.3 22l3.2-14.9z"/>
			<path class="s7" d="m164.5 399.6v7.6q2.9 0.1 5.8 0 2.9-0.1 5.8-0.5 2.9-0.4 5.7-1.1 2.8-0.7 5.6-1.6c8.9-3.1 15.2-8 17.7-13.8q0.2-0.6 0.4-1.3 0.3-0.6 0.4-1.3 0.2-0.6 0.2-1.3 0.1-0.7 0.1-1.4c0-0.7 0-7.9 0-7.9 0 0-2.1-0.1-4.6-2.8l-5.9 2-26.6 9.2z"/>
			<path class="s17" d="m164.5 399.6v7.6q2.9 0.1 5.8 0 2.9-0.1 5.8-0.5 2.9-0.4 5.7-1.1 2.8-0.7 5.6-1.6c8.9-3.1 15.2-8 17.7-13.8q0.2-0.6 0.4-1.3 0.3-0.6 0.4-1.3 0.2-0.6 0.2-1.3 0.1-0.7 0.1-1.4c0-0.7 0-7.9 0-7.9 0 0-2.1-0.1-4.6-2.8l-5.9 2-26.6 9.2z"/>
			<path fill-rule="evenodd" class="s7" d="m141.3 368.3l23.1 13.4v-7.7l-23.1-13.3v7.6z"/>
			<path fill-rule="evenodd" class="s19" d="m141.3 368.3l23.1 13.4v-7.7l-23.1-13.3v7.6z"/>
			<path class="s7" d="m129 374.5c-2.5 11.9 11.7 22.8 32 24.8l4.6-21.7-26.8-15.5c-5.6 3.5-8.8 7.6-9.8 12.4z"/>
			<path class="s9" d="m129 374.5c-2.5 11.9 11.7 22.8 32 24.8l4.6-21.7-26.8-15.5c-5.6 3.5-8.8 7.6-9.8 12.4z"/>
			<path class="s7" d="m164.6 398.9l-0.1 0.7q2.9 0.1 5.8 0 2.9-0.1 5.8-0.5 2.9-0.4 5.7-1.1 2.8-0.6 5.6-1.6c8.9-3.1 15.2-8 17.7-13.7 2.3-5.5 1.1-11.2-3.5-16l-5.9 2-26.6 9.2z"/>
			<path class="s21" d="m164.6 398.9l-0.1 0.7q2.9 0.1 5.8 0 2.9-0.1 5.8-0.5 2.9-0.4 5.7-1.1 2.8-0.6 5.6-1.6c8.9-3.1 15.2-8 17.7-13.7 2.3-5.5 1.1-11.2-3.5-16l-5.9 2-26.6 9.2z"/>
			<path class="s7" d="m141.3 360.7l23.1 13.4-6.8-18.5q-2.1 0.2-4.2 0.7-2.1 0.4-4.2 1.1-2 0.6-4 1.5-2 0.8-3.9 1.8z"/>
			<path fill-rule="evenodd" class="s7" d="m165.6 385.2v-7.6l-4.7 21.7v7.6l4.7-21.7z"/>
			<path fill-rule="evenodd" class="s22" d="m165.6 385.2v-7.6l-4.7 21.7v7.6l4.7-21.7z"/>
			<path fill-rule="evenodd" class="s7" d="m195.1 343.7l-5.1 2.9 5.1 2.9 5-2.9-5-2.9z"/>
			<path fill-rule="evenodd" class="s9" d="m195.1 343.7l-5.1 2.9 5.1 2.9 5-2.9-5-2.9z"/>
			<path fill-rule="evenodd" class="s7" d="m200.1 346.6v2.9l-5 2.9v-2.9l5-2.9z"/>
			<path fill-rule="evenodd" class="s15" d="m200.1 346.6v2.9l-5 2.9v-2.9l5-2.9z"/>
			<path fill-rule="evenodd" class="s7" d="m195.1 349.5v2.9l-5.1-2.9v-2.9l5.1 2.9z"/>
			<path fill-rule="evenodd" class="s22" d="m195.1 349.5v2.9l-5.1-2.9v-2.9l5.1 2.9z"/>
			<path class="s1" d="m202.8 341.4l18.7-10.7q0.4-0.3 0.9-0.4 0.5-0.1 1-0.1 0.5 0 1 0.1 0.5 0.1 1 0.3c1 0.6 1 1.6-0.2 2.3l-18.6 10.7q-0.5 0.3-1 0.4-0.5 0.1-1 0.1-0.5 0-1-0.1-0.5-0.1-1-0.3c-1-0.6-0.9-1.6 0.2-2.2z"/>
			<path fill-rule="evenodd" class="s7" d="m206.4 350.3l-5 2.9 5 2.9 5.1-2.9-5.1-2.9z"/>
			<path fill-rule="evenodd" class="s20" d="m206.4 350.3l-5 2.9 5 2.9 5.1-2.9-5.1-2.9z"/>
			<path fill-rule="evenodd" class="s7" d="m211.5 353.2v2.9l-5.1 2.9v-2.9l5.1-2.9z"/>
			<path fill-rule="evenodd" class="s21" d="m211.5 353.2v2.9l-5.1 2.9v-2.9l5.1-2.9z"/>
			<path fill-rule="evenodd" class="s7" d="m206.4 356.1v2.9l-5-2.9v-2.9l5 2.9z"/>
			<path fill-rule="evenodd" class="s17" d="m206.4 356.1v2.9l-5-2.9v-2.9l5 2.9z"/>
			<path class="s1" d="m214.1 348l18.7-10.8q0.5-0.2 1-0.3 0.4-0.2 1-0.2 0.5 0 1 0.1 0.5 0.1 0.9 0.3c1.1 0.7 1 1.7-0.1 2.3l-18.7 10.8q-0.4 0.2-0.9 0.4-0.5 0.1-1 0.1-0.5 0-1-0.1-0.5-0.1-1-0.3c-1-0.6-1-1.7 0.1-2.3z"/>
			<path fill-rule="evenodd" class="s7" d="m217.8 356.8l-5.1 2.9 5.1 2.9 5-2.9-5-2.9z"/>
			<path fill-rule="evenodd" class="s18" d="m217.8 356.8l-5.1 2.9 5.1 2.9 5-2.9-5-2.9z"/>
			<path fill-rule="evenodd" class="s7" d="m222.8 359.7v2.9l-5 3v-3l5-2.9z"/>
			<path fill-rule="evenodd" class="s7" d="m217.8 362.6v3l-5.1-3v-2.9l5.1 2.9z"/>
			<path fill-rule="evenodd" class="s19" d="m217.8 362.6v3l-5.1-3v-2.9l5.1 2.9z"/>
			<path class="s1" d="m225.5 354.6l18.7-10.8q0.4-0.3 0.9-0.4 0.5-0.1 1-0.1 0.5 0 1 0.1 0.5 0.1 1 0.3c1 0.6 1 1.6-0.1 2.3l-18.7 10.7q-0.5 0.3-1 0.4-0.5 0.1-1 0.2-0.5 0-1-0.1-0.5-0.1-0.9-0.4c-1.1-0.6-1-1.6 0.1-2.2z"/>
			<path fill-rule="evenodd" class="s6" d="m229.2 363.4l-5.1 2.9 5.1 2.9 5-2.9-5-2.9z"/>
			<path fill-rule="evenodd" class="s5" d="m234.2 366.3v2.9l-5 2.9v-2.9l5-2.9z"/>
			<path fill-rule="evenodd" class="s3" d="m229.2 369.2v2.9l-5.1-2.9v-2.9l5.1 2.9z"/>
			<path class="s1" d="m236.8 361.1l18.7-10.8q0.5-0.2 1-0.3 0.5-0.1 1-0.2 0.5 0 1 0.1 0.5 0.1 0.9 0.4c1.1 0.6 1 1.6-0.1 2.2l-18.7 10.8q-0.4 0.2-0.9 0.4-0.5 0.1-1 0.1-0.5 0-1-0.1-0.5-0.1-1-0.3c-1-0.6-1-1.6 0.1-2.3z"/>
		</g>
	</g>
	<g id="freepik--Character--inject-108">
		<g id="freepik--character--inject-108">
			<path class="s23" d="m387.2 206.5c7 0 10.3 2 12.8 8.6 2.5 6.5 9.1 21.8 9.2 26.3 0.1 4.7-15 18.9-14.4 18.7 0.1-0.1-4.6-8.6-4.6-8.6l8.5-10.4-4.9-14.2z"/>
			<path class="s3" d="m395.8 361.9c0.4 0.4 0.5 0.8 0.5 2.2 0 1.5 0.6 3.2-0.1 4.5-0.6 1-3.5 1.8-5 1q-0.5-0.3-0.9-0.6-0.5-0.4-0.9-0.8-0.4-0.3-0.8-0.8-0.4-0.4-0.8-0.8-0.3-0.4-0.7-0.8-0.3-0.4-0.7-0.7-0.4-0.4-0.8-0.7-0.4-0.4-0.8-0.7c-1.2-0.9-2.7-1.5-4-2.4q-0.7-0.5-1.4-1.1-0.6-0.7-1.1-1.5-0.5-0.7-0.7-1.6-0.3-0.9-0.4-1.8 0-0.3 0-0.6 0-0.3 0.1-0.6 0-0.2 0.1-0.5 0.1-0.3 0.3-0.6 0.2-0.2 0.5-0.4 0.3-0.2 0.6-0.4 0.4-0.1 0.8-0.1 0.3 0 0.7 0.1c1.4 0.2 6.2 2.9 7.3 3.6 1.4 1 7.8 5.6 8.2 6.1z"/>
			<path class="s23" d="m388.8 355.7c-0.1 1.1-4.5-1.4-6.4-1.1-1.7 0.8-0.3 3.2 1.3 4.4 1.6 1.2 6.7 5 6.7 5l1.1-6.1z"/>
			<path class="s3" d="m369.4 373c0.8 0 1.2 2.7 1.4 4.8 0.1 1.6 0.7 4.3 0.1 5.5-0.6 1.2-2.8 1.9-6.1 1.8-2.2 0-5.6 1.4-8 2.7q-0.8 0.4-1.8 0.7-0.9 0.3-1.9 0.4-0.9 0.1-1.9 0.1-1-0.1-2-0.3c-2.9-0.3-6-2.1-6.5-3.4-0.5-1.2 0.2-1.8 7.3-4.7 0 0 7.5-3.3 11-7z"/>
			<path class="s23" d="m350 380.6c-1 0.4-1.8 0.7-2.6 1-0.2 0.7 0.1 1.8 3.2 2.3 4.8 0.8 18.9-9.8 18.9-9.8 0 0-2 0.6-2.4-0.6h-6.1c-3.5 3.8-11 7-11 7.1z"/>
			<path class="s23" d="m398.7 327.1q0-1.8-0.1-3.5-0.1-1.8-0.2-3.5-0.2-1.7-0.5-3.5-0.2-1.7-0.6-3.4c-0.3-1.1 0.8-17.9 0.9-29.1 0.2-22.2-0.2-25.4-5.1-35 0 0-28.7-3.3-29.9 10.6-1.5 17.4-3.3 46.5-3.2 54.8 0 6.2 0.7 12.9 1.1 26.9 0.2 9 1.1 21.6-0.2 32.2 1.7 2.7 6 2.7 8.5 0.6 0.8-10.4 5.9-30.3 6.7-37.2q0.2-1.9 0.2-3.8 0.1-1.9 0-3.7-0.1-1.9-0.3-3.8-0.2-1.9-0.5-3.7c-0.2-1.3 3.8-29.7 4.5-34.2q0.3 1.8 0.6 3.6 0.3 1.8 0.5 3.6 0.2 1.8 0.4 3.7 0.1 1.8 0.1 3.6c0 2 0.7 8.6 1.8 19.7 0.7 6.7 5.5 33.2 6.6 41.6 2.4 2.4 5.5 0.8 5.6-0.2 0.8-10.4 3.1-29.9 3.1-36.3z"/>
			<path class="s12" d="m380 287.8l2.5-14.4q1.6-0.2 3.2-0.8 1.5-0.5 3-1.2 1.4-0.8 2.7-1.8 1.3-0.9 2.4-2.1c0.8-0.8-1.5 5.7-9 7.7l-3 13-0.5 11.9z"/>
			<path fill-rule="evenodd" class="s23" d="m372.8 201.7l1.2 13 11.4-0.7-0.9-14.5-11.7 2.2z"/>
			<path class="s7" d="m395.8 252.6q-0.5-1.3-1.1-2.6-0.5-1.3-1.2-2.5-0.6-1.2-1.3-2.4-0.7-1.3-1.4-2.4c4.9-15.8 6.4-21.1 5.5-27.9-0.6-4.3-4-8.5-8.2-8.3h-3.1c-0.2 3-8.5 3.1-11.6 1.1h-3c-2 0.8-9 11-9.8 17.8-0.6 5.5 3.7 10.3 3.7 10.3q0.1 0.9 0 1.7 0 0.9 0 1.8-0.1 0.9-0.2 1.7-0.1 0.9-0.2 1.8c0 0.6 0 13.3 0 20 0 0 1.6 5.1 18.5 3.5 15-1.4 15.3-6.5 15.3-6.5q-0.1-0.9-0.3-1.8-0.2-0.9-0.5-1.8-0.2-0.9-0.5-1.8-0.3-0.9-0.6-1.7z"/>
			<g style="opacity: .3">
				<path class="s4" d="m395.8 252.6q-0.5-1.3-1.1-2.6-0.5-1.3-1.2-2.5-0.6-1.2-1.3-2.4-0.7-1.3-1.4-2.4c4.9-15.8 6.4-21.1 5.5-27.9-0.6-4.3-4-8.5-8.2-8.3h-3.1c-0.2 3-8.5 3.1-11.6 1.1h-3c-2 0.8-9 11-9.8 17.8-0.6 5.5 3.7 10.3 3.7 10.3q0.1 0.9 0 1.7 0 0.9 0 1.8-0.1 0.9-0.2 1.7-0.1 0.9-0.2 1.8c0 0.6 0 13.3 0 20 0 0 1.6 5.1 18.5 3.5 15-1.4 15.3-6.5 15.3-6.5q-0.1-0.9-0.3-1.8-0.2-0.9-0.5-1.8-0.2-0.9-0.5-1.8-0.3-0.9-0.6-1.7z"/>
			</g>
			<path class="s3" d="m374.5 171.1q-1.3-0.1-2.5 0-1.3 0.1-2.5 0.6-1.2 0.4-2.3 1.1-1 0.7-1.9 1.7c-5.9 6.6 0.6 11.4 0.6 11.4z"/>
			<path class="s24" d="m364.3 187.3c0 0-2.5 3.8-2.2 4.3q0.2 0.1 0.5 0.2 0.2 0.2 0.4 0.3 0.3 0.1 0.5 0.1 0.3 0.1 0.5 0.2z"/>
			<path class="s23" d="m372.1 175.2c-2.5 1.3-6.7 3.6-7.9 12.7-1.1 9.3 1 12.5 2.2 13.8 0.9 0.8 5.3 1.1 7.6 0.4 2.9-0.9 9.2-4 12.1-8.8 3.5-5.6 4.2-13.2 0.3-16.1-5.6-4.2-12.2-3.1-14.3-2z"/>
			<path class="s3" d="m370.9 185.9c-5.2-2.6-3.9-9.5-3.9-9.5 0 0 7.4-10.5 21-3.7 4.7 2.4 7.6 7.7 7.5 14-0.1 1.9-0.4 3.9-1.2 5.6-0.7 1.8-1.8 3.5-3.2 4.8-1.4 1.4-3 2.5-4.8 3.2-1.8 0.8-3.7 1.2-5.6 1.2-1.2 0-2.3-0.3-3.3-0.7-1.1-0.4-2-1.1-2.8-1.9-0.8-0.8-1.5-1.7-1.9-2.8-0.4-1-0.6-2.1-0.6-3.3v-0.5l0.4 0.1q0.5 0.1 1.1 0.1 0.5 0 1-0.1 0.5-0.2 1-0.4 0.5-0.3 0.9-0.7c2.3-2 2.5-5.7-0.3-6.7-2.9-1-4.4 2.4-4.4 2.4l-1.1 3q-0.4-0.1-0.7-0.4-0.4-0.3-0.5-0.7-0.2-0.4-0.2-0.8-0.1-0.5 0.1-0.9 0.1-0.2 0.2-0.4 0.2-0.2 0.4-0.4 0.2-0.2 0.4-0.3 0.2-0.1 0.5-0.2z"/>
			<path fill-rule="evenodd" class="s7" d="m339.6 188l-24.6 12.3 11.6 33.3 23-12.3-10-33.3z"/>
			<path fill-rule="evenodd" class="s13" d="m338.4 191.2l-20.6 10.4 10.3 28.6 19.2-10.4-8.8-28.6z"/>
			<path class="s12" d="m334.1 194.2l-0.4-1c-0.2-0.5-1.9-0.2-3.8 0.7l-3.6 1.8c-1.9 0.9-3.3 2.2-3.1 2.7l0.4 1z"/>
			<path class="s5" d="m333.8 190.2c-0.2-0.4-0.9-0.3-1.7 0.1l-1.4 0.7c0 0-0.9-2.2-4.1-0.7-3.3 1.4-2.6 4-2.6 4l-1.5 0.8c-0.8 0.4-1.4 1.1-1.3 1.4l0.1 0.7 12.7-6.4z"/>
			<path class="s3" d="m332.4 191.6c-1.2 0.6-1.7 0.9-1.3 1.7 0.3 0.9 0.7 1.7 0.7 1.7l-5.6 2.8c0 0-0.5-1.2-0.7-1.7-0.2-0.5-0.6-0.7-1.5-0.3l-0.3-0.4 8.9-4.3z"/>
			<path class="s5" d="m334.3 194.3l-0.4-1c-0.2-0.6-1.9-0.3-3.8 0.7l-3.6 1.8c-1.9 0.9-3.3 2.1-3.1 2.7l0.4 1z"/>
			<path class="s23" d="m370.4 207.6c-3.8 0-6.2 0.3-11.5 8.2-5.3 7.8-15 22.2-16.2 24.1-1.6 2.6-2 6.6-0.7 9 1.3 2.3 3.4 3.1 9.5-3.4 4.5-4.8 14-17.5 14-17.5 0 0 7.3-13.7 4.9-20.4z"/>
			<path class="s23" d="m344.4 250.6c-3.1 1-14.8-13-18.1-17.2q-1-1.3-2-2.5-1.1-1.2-2.3-2.4-1.1-1.2-2.3-2.2-1.2-1.1-2.5-2.1c-4.5-3.5-3.8-8.7-1.7-13.4 0.7-1.6 3-0.5 3-0.5l0.8 2.3 1.3 3.9c1 0.9 1.5 1.2 1.6 0.9 0.1-0.5-0.7-2.6-0.6-4.8 0-2.6 1.9-0.8 2.4 0.1q0.3 0.5 0.5 1.1 0.3 0.5 0.5 1.1 0.2 0.5 0.5 1.1 0.2 0.5 0.4 1.1c0.8 2.4 0.4 4.7 1.5 6.4 1.1 1.6 17 14.8 17 14.8z"/>
			<path class="s7" d="m390.8 242.7c0 0-11.2 6.6-26.9 0q-0.5 3.1-1 6.2-0.4 3.1-0.8 6.2-0.3 3.1-0.6 6.2-0.3 3.1-0.4 6.3c-0.6 10.6-1.8 33.4-1.8 33.4 0 0 4.6 5.4 21.1 4.3 15.9-1 18.7-5.2 18.7-5.2 0 0 0-20.5 0.2-29.4 0.1-11.5-1.5-17.7-8.5-28z"/>
			<path class="s16" d="m390.8 242.7c0 0-11.2 6.6-26.9 0q-0.5 3.1-1 6.2-0.4 3.1-0.8 6.2-0.3 3.1-0.6 6.2-0.3 3.1-0.4 6.3c-0.6 10.6-1.8 33.4-1.8 33.4 0 0 4.6 5.4 21.1 4.3 15.9-1 18.7-5.2 18.7-5.2 0 0 0-20.5 0.2-29.4 0.1-11.5-1.5-17.7-8.5-28z"/>
			<path class="s3" d="m396 182.3l2.6-2.4c-0.3-0.4-0.8-0.6-1.3-0.7-0.5-0.1-1 0-1.5 0.3-0.4 0.2-0.8 0.6-1 1.1-0.2 0.5-0.2 1-0.1 1.5-0.3 0-0.6 0-1 0v21c0 1.5 0.3 2.9 0.9 4.2 0.5 1.4 1.3 2.6 2.3 3.6 1.1 1 2.3 1.8 3.6 2.4 1.3 0.5 2.7 0.8 4.2 0.8v-21.1q0-1.9-0.7-3.7-0.6-1.7-1.8-3.2-1.2-1.4-2.8-2.4-1.6-1-3.4-1.4z"/>
		</g>
	</g>
</svg>